<?xml version="1.0" encoding="utf-8"?>
<!-- Generator: Adobe Illustrator 25.4.1, SVG Export Plug-In . SVG Version: 6.00 Build 0)  -->
<svg version="1.1" xmlns="http://www.w3.org/2000/svg" xmlns:xlink="http://www.w3.org/1999/xlink" x="0px" y="0px"
	 viewBox="0 0 1200 200" style="enable-background:new 0 0 1200 200;" xml:space="preserve">
<style type="text/css">
	.st0{fill:#FFFFFF;}
</style>
<symbol  id="circle" viewBox="-1 -1 2 2">
	<circle class="st0" cx="0" cy="0" r="1"/>
</symbol>
<symbol  id="star" viewBox="-1.8 -1.8 3.5 3.5">
	<g>
		<circle class="st0" cx="0" cy="0" r="1.8"/>
	</g>
</symbol>
<g id="Шар_2">
	<g>
		
			<use xlink:href="#circle"  width="2" height="2" x="-1" y="-1" transform="matrix(1 0 0 -1 0.7093 182.0551)" style="overflow:visible;"/>
		
			<use xlink:href="#circle"  width="2" height="2" x="-1" y="-1" transform="matrix(1 0 0 -1 -2.4597 126.2117)" style="overflow:visible;"/>
		
			<use xlink:href="#circle"  width="2" height="2" x="-1" y="-1" transform="matrix(1 0 0 -1 -0.777 63.276)" style="overflow:visible;"/>
		
			<use xlink:href="#circle"  width="2" height="2" x="-1" y="-1" transform="matrix(1 0 0 -1 0.2634 12.0897)" style="overflow:visible;"/>
		
			<use xlink:href="#circle"  width="2" height="2" x="-1" y="-1" transform="matrix(1 0 0 -1 -6.751947e-03 26.9003)" style="overflow:visible;"/>
		
			<use xlink:href="#circle"  width="2" height="2" x="-1" y="-1" transform="matrix(1 0 0 -1 5.9672 85.5455)" style="overflow:visible;"/>
		
			<use xlink:href="#circle"  width="2" height="2" x="-1" y="-1" transform="matrix(1 0 0 -1 7.3858 125.1276)" style="overflow:visible;"/>
		
			<use xlink:href="#circle"  width="2" height="2" x="-1" y="-1" transform="matrix(1 0 0 -1 23.8295 101.011)" style="overflow:visible;"/>
		
			<use xlink:href="#circle"  width="2" height="2" x="-1" y="-1" transform="matrix(1 0 0 -1 52.4672 15.7423)" style="overflow:visible;"/>
		
			<use xlink:href="#circle"  width="2" height="2" x="-1" y="-1" transform="matrix(1 0 0 -1 45.3161 35.6139)" style="overflow:visible;"/>
		
			<use xlink:href="#circle"  width="2" height="2" x="-1" y="-1" transform="matrix(1 0 0 -1 -13.4873 64.7098)" style="overflow:visible;"/>
		
			<use xlink:href="#circle"  width="2" height="2" x="-1" y="-1" transform="matrix(1 0 0 -1 126.3441 31.7168)" style="overflow:visible;"/>
		
			<use xlink:href="#circle"  width="2" height="2" x="-1" y="-1" transform="matrix(1 0 0 -1 120.1458 52.5359)" style="overflow:visible;"/>
		
			<use xlink:href="#circle"  width="2" height="2" x="-1" y="-1" transform="matrix(1 0 0 -1 70.984 98.6613)" style="overflow:visible;"/>
		
			<use xlink:href="#circle"  width="2" height="2" x="-1" y="-1" transform="matrix(1 0 0 -1 65.1092 105.1795)" style="overflow:visible;"/>
		
			<use xlink:href="#circle"  width="2" height="2" x="-1" y="-1" transform="matrix(1 0 0 -1 68.2755 109.4769)" style="overflow:visible;"/>
		
			<use xlink:href="#circle"  width="2" height="2" x="-1" y="-1" transform="matrix(1 0 0 -1 75.6184 88.1431)" style="overflow:visible;"/>
		
			<use xlink:href="#circle"  width="2" height="2" x="-1" y="-1" transform="matrix(1 0 0 -1 127.3437 49.09)" style="overflow:visible;"/>
		
			<use xlink:href="#circle"  width="2" height="2" x="-1" y="-1" transform="matrix(1 0 0 -1 89.7997 140.5113)" style="overflow:visible;"/>
		
			<use xlink:href="#circle"  width="2" height="2" x="-1" y="-1" transform="matrix(1 0 0 -1 72.4833 152.5627)" style="overflow:visible;"/>
		
			<use xlink:href="#circle"  width="2" height="2" x="-1" y="-1" transform="matrix(1 0 0 -1 54.4897 167.6818)" style="overflow:visible;"/>
		
			<use xlink:href="#circle"  width="2" height="2" x="-1" y="-1" transform="matrix(1 0 0 -1 49.2831 173.4519)" style="overflow:visible;"/>
		
			<use xlink:href="#circle"  width="2" height="2" x="-1" y="-1" transform="matrix(1 0 0 -1 44.7283 121.5058)" style="overflow:visible;"/>
		
			<use xlink:href="#circle"  width="2" height="2" x="-1" y="-1" transform="matrix(1 0 0 -1 82.8491 10.3707)" style="overflow:visible;"/>
		
			<use xlink:href="#circle"  width="2" height="2" x="-1" y="-1" transform="matrix(1 0 0 -1 95.4712 9.8737)" style="overflow:visible;"/>
		
			<use xlink:href="#circle"  width="2" height="2" x="-1" y="-1" transform="matrix(1 0 0 -1 138.1484 76.9323)" style="overflow:visible;"/>
		
			<use xlink:href="#circle"  width="2" height="2" x="-1" y="-1" transform="matrix(1 0 0 -1 167.4961 63.4448)" style="overflow:visible;"/>
		
			<use xlink:href="#circle"  width="2" height="2" x="-1" y="-1" transform="matrix(1 0 0 -1 124.0072 105.7831)" style="overflow:visible;"/>
		
			<use xlink:href="#circle"  width="2" height="2" x="-1" y="-1" transform="matrix(1 0 0 -1 124.7442 117.8088)" style="overflow:visible;"/>
		
			<use xlink:href="#circle"  width="2" height="2" x="-1" y="-1" transform="matrix(1 0 0 -1 143.3522 119.305)" style="overflow:visible;"/>
		
			<use xlink:href="#circle"  width="2" height="2" x="-1" y="-1" transform="matrix(1 0 0 -1 255.5953 61.4388)" style="overflow:visible;"/>
		
			<use xlink:href="#circle"  width="2" height="2" x="-1" y="-1" transform="matrix(1 0 0 -1 240.2912 109.5921)" style="overflow:visible;"/>
		
			<use xlink:href="#circle"  width="2" height="2" x="-1" y="-1" transform="matrix(1 0 0 -1 227.0924 153.5602)" style="overflow:visible;"/>
		
			<use xlink:href="#circle"  width="2" height="2" x="-1" y="-1" transform="matrix(1 0 0 -1 226.0786 93.921)" style="overflow:visible;"/>
		
			<use xlink:href="#circle"  width="2" height="2" x="-1" y="-1" transform="matrix(1 0 0 -1 202.2993 35.4973)" style="overflow:visible;"/>
		
			<use xlink:href="#circle"  width="2" height="2" x="-1" y="-1" transform="matrix(1 0 0 -1 193.4991 32.021)" style="overflow:visible;"/>
		
			<use xlink:href="#circle"  width="2" height="2" x="-1" y="-1" transform="matrix(1 0 0 -1 211.59 30.7342)" style="overflow:visible;"/>
		
			<use xlink:href="#circle"  width="2" height="2" x="-1" y="-1" transform="matrix(1 0 0 -1 263.1742 36.0417)" style="overflow:visible;"/>
		
			<use xlink:href="#circle"  width="2" height="2" x="-1" y="-1" transform="matrix(1 0 0 -1 260.4538 80.2184)" style="overflow:visible;"/>
		
			<use xlink:href="#circle"  width="2" height="2" x="-1" y="-1" transform="matrix(1 0 0 -1 268.0309 98.7369)" style="overflow:visible;"/>
		
			<use xlink:href="#circle"  width="2" height="2" x="-1" y="-1" transform="matrix(1 0 0 -1 266.0226 102.9986)" style="overflow:visible;"/>
		
			<use xlink:href="#circle"  width="2" height="2" x="-1" y="-1" transform="matrix(1 0 0 -1 269.1865 112.7061)" style="overflow:visible;"/>
		
			<use xlink:href="#circle"  width="2" height="2" x="-1" y="-1" transform="matrix(1 0 0 -1 365.3775 17.1221)" style="overflow:visible;"/>
		
			<use xlink:href="#circle"  width="2" height="2" x="-1" y="-1" transform="matrix(1 0 0 -1 372.8109 55.9824)" style="overflow:visible;"/>
		
			<use xlink:href="#circle"  width="2" height="2" x="-1" y="-1" transform="matrix(1 0 0 -1 375.5884 74.9388)" style="overflow:visible;"/>
		
			<use xlink:href="#circle"  width="2" height="2" x="-1" y="-1" transform="matrix(1 0 0 -1 399.8749 58.917)" style="overflow:visible;"/>
		
			<use xlink:href="#circle"  width="2" height="2" x="-1" y="-1" transform="matrix(1 0 0 -1 383.4416 92.9914)" style="overflow:visible;"/>
		
			<use xlink:href="#circle"  width="2" height="2" x="-1" y="-1" transform="matrix(1 0 0 -1 354.8748 101.6526)" style="overflow:visible;"/>
		
			<use xlink:href="#circle"  width="2" height="2" x="-1" y="-1" transform="matrix(1 0 0 -1 339.8991 86.5695)" style="overflow:visible;"/>
		
			<use xlink:href="#circle"  width="2" height="2" x="-1" y="-1" transform="matrix(1 0 0 -1 314.8048 28.1985)" style="overflow:visible;"/>
		
			<use xlink:href="#circle"  width="2" height="2" x="-1" y="-1" transform="matrix(1 0 0 -1 330.0381 30.9109)" style="overflow:visible;"/>
		
			<use xlink:href="#circle"  width="2" height="2" x="-1" y="-1" transform="matrix(1 0 0 -1 388.0247 87.4356)" style="overflow:visible;"/>
		
			<use xlink:href="#circle"  width="2" height="2" x="-1" y="-1" transform="matrix(1 0 0 -1 475.8375 40.5159)" style="overflow:visible;"/>
		
			<use xlink:href="#circle"  width="2" height="2" x="-1" y="-1" transform="matrix(1 0 0 -1 476.2657 45.4416)" style="overflow:visible;"/>
		
			<use xlink:href="#circle"  width="2" height="2" x="-1" y="-1" transform="matrix(1 0 0 -1 468.5137 90.8318)" style="overflow:visible;"/>
		
			<use xlink:href="#circle"  width="2" height="2" x="-1" y="-1" transform="matrix(1 0 0 -1 462.4175 98.0843)" style="overflow:visible;"/>
		
			<use xlink:href="#circle"  width="2" height="2" x="-1" y="-1" transform="matrix(1 0 0 -1 441.6235 37.1534)" style="overflow:visible;"/>
		
			<use xlink:href="#circle"  width="2" height="2" x="-1" y="-1" transform="matrix(1 0 0 -1 424.4148 17.3908)" style="overflow:visible;"/>
		
			<use xlink:href="#circle"  width="2" height="2" x="-1" y="-1" transform="matrix(1 0 0 -1 462.3227 34.0894)" style="overflow:visible;"/>
		
			<use xlink:href="#circle"  width="2" height="2" x="-1" y="-1" transform="matrix(1 0 0 -1 529.6667 84.8464)" style="overflow:visible;"/>
		
			<use xlink:href="#circle"  width="2" height="2" x="-1" y="-1" transform="matrix(1 0 0 -1 541.0643 65.2697)" style="overflow:visible;"/>
		
			<use xlink:href="#circle"  width="2" height="2" x="-1" y="-1" transform="matrix(1 0 0 -1 506.4917 84.1067)" style="overflow:visible;"/>
		
			<use xlink:href="#circle"  width="2" height="2" x="-1" y="-1" transform="matrix(1 0 0 -1 507.3943 89.0966)" style="overflow:visible;"/>
		
			<use xlink:href="#circle"  width="2" height="2" x="-1" y="-1" transform="matrix(1 0 0 -1 593.5831 24.7983)" style="overflow:visible;"/>
		
			<use xlink:href="#circle"  width="2" height="2" x="-1" y="-1" transform="matrix(1 0 0 -1 611.6955 46.3119)" style="overflow:visible;"/>
		
			<use xlink:href="#circle"  width="2" height="2" x="-1" y="-1" transform="matrix(1 0 0 -1 618.1094 54.9589)" style="overflow:visible;"/>
		
			<use xlink:href="#circle"  width="2" height="2" x="-1" y="-1" transform="matrix(1 0 0 -1 614.2739 75.0654)" style="overflow:visible;"/>
		
			<use xlink:href="#circle"  width="2" height="2" x="-1" y="-1" transform="matrix(1 0 0 -1 615.8367 88.5974)" style="overflow:visible;"/>
		
			<use xlink:href="#circle"  width="2" height="2" x="-1" y="-1" transform="matrix(1 0 0 -1 683.3162 52.7361)" style="overflow:visible;"/>
		
			<use xlink:href="#circle"  width="2" height="2" x="-1" y="-1" transform="matrix(1 0 0 -1 681.647 24.8549)" style="overflow:visible;"/>
		
			<use xlink:href="#circle"  width="2" height="2" x="-1" y="-1" transform="matrix(1 0 0 -1 681.4427 34.5474)" style="overflow:visible;"/>
		
			<use xlink:href="#circle"  width="2" height="2" x="-1" y="-1" transform="matrix(1 0 0 -1 689.6499 79.3051)" style="overflow:visible;"/>
		
			<use xlink:href="#circle"  width="2" height="2" x="-1" y="-1" transform="matrix(1 0 0 -1 701.9288 89.0158)" style="overflow:visible;"/>
		
			<use xlink:href="#circle"  width="2" height="2" x="-1" y="-1" transform="matrix(1 0 0 -1 735.7781 96.7228)" style="overflow:visible;"/>
		
			<use xlink:href="#circle"  width="2" height="2" x="-1" y="-1" transform="matrix(1 0 0 -1 791.4714 90.6222)" style="overflow:visible;"/>
		
			<use xlink:href="#circle"  width="2" height="2" x="-1" y="-1" transform="matrix(1 0 0 -1 777.6298 65.4113)" style="overflow:visible;"/>
		
			<use xlink:href="#circle"  width="2" height="2" x="-1" y="-1" transform="matrix(1 0 0 -1 757.6953 45.0329)" style="overflow:visible;"/>
		
			<use xlink:href="#circle"  width="2" height="2" x="-1" y="-1" transform="matrix(1 0 0 -1 754.6941 35.2055)" style="overflow:visible;"/>
		
			<use xlink:href="#circle"  width="2" height="2" x="-1" y="-1" transform="matrix(1 0 0 -1 745.9922 30.7706)" style="overflow:visible;"/>
		
			<use xlink:href="#circle"  width="2" height="2" x="-1" y="-1" transform="matrix(1 0 0 -1 773.7858 25.9054)" style="overflow:visible;"/>
		
			<use xlink:href="#circle"  width="2" height="2" x="-1" y="-1" transform="matrix(1 0 0 -1 831.633 31.6845)" style="overflow:visible;"/>
		
			<use xlink:href="#circle"  width="2" height="2" x="-1" y="-1" transform="matrix(1 0 0 -1 833.2739 54.6595)" style="overflow:visible;"/>
		
			<use xlink:href="#circle"  width="2" height="2" x="-1" y="-1" transform="matrix(1 0 0 -1 831.8511 91.8935)" style="overflow:visible;"/>
		
			<use xlink:href="#circle"  width="2" height="2" x="-1" y="-1" transform="matrix(1 0 0 -1 825.7 118.049)" style="overflow:visible;"/>
		
			<use xlink:href="#circle"  width="2" height="2" x="-1" y="-1" transform="matrix(1 0 0 -1 853.2796 104.044)" style="overflow:visible;"/>
		
			<use xlink:href="#circle"  width="2" height="2" x="-1" y="-1" transform="matrix(1 0 0 -1 870.1727 42.6315)" style="overflow:visible;"/>
		
			<use xlink:href="#circle"  width="2" height="2" x="-1" y="-1" transform="matrix(1 0 0 -1 859.1148 6.2354)" style="overflow:visible;"/>
		
			<use xlink:href="#circle"  width="2" height="2" x="-1" y="-1" transform="matrix(1 0 0 -1 882.2115 29.3452)" style="overflow:visible;"/>
		
			<use xlink:href="#circle"  width="2" height="2" x="-1" y="-1" transform="matrix(1 0 0 -1 897.1242 44.8878)" style="overflow:visible;"/>
		
			<use xlink:href="#circle"  width="2" height="2" x="-1" y="-1" transform="matrix(1 0 0 -1 895.0182 58.6484)" style="overflow:visible;"/>
		
			<use xlink:href="#circle"  width="2" height="2" x="-1" y="-1" transform="matrix(1 0 0 -1 901.0533 96.1894)" style="overflow:visible;"/>
		
			<use xlink:href="#circle"  width="2" height="2" x="-1" y="-1" transform="matrix(1 0 0 -1 909.2698 106.501)" style="overflow:visible;"/>
		
			<use xlink:href="#circle"  width="2" height="2" x="-1" y="-1" transform="matrix(1 0 0 -1 939.5225 97.1689)" style="overflow:visible;"/>
		
			<use xlink:href="#circle"  width="2" height="2" x="-1" y="-1" transform="matrix(1 0 0 -1 945.4329 36.7405)" style="overflow:visible;"/>
		
			<use xlink:href="#circle"  width="2" height="2" x="-1" y="-1" transform="matrix(1 0 0 -1 945.4894 13.7585)" style="overflow:visible;"/>
		
			<use xlink:href="#circle"  width="2" height="2" x="-1" y="-1" transform="matrix(1 0 0 -1 991.852 87.7745)" style="overflow:visible;"/>
		
			<use xlink:href="#circle"  width="2" height="2" x="-1" y="-1" transform="matrix(1 0 0 -1 987.3507 105.4057)" style="overflow:visible;"/>
		
			<use xlink:href="#circle"  width="2" height="2" x="-1" y="-1" transform="matrix(1 0 0 -1 984.6671 139.5549)" style="overflow:visible;"/>
		
			<use xlink:href="#circle"  width="2" height="2" x="-1" y="-1" transform="matrix(1 0 0 -1 1001.1328 141.802)" style="overflow:visible;"/>
		
			<use xlink:href="#circle"  width="2" height="2" x="-1" y="-1" transform="matrix(1 0 0 -1 1041.9178 87.3474)" style="overflow:visible;"/>
		
			<use xlink:href="#circle"  width="2" height="2" x="-1" y="-1" transform="matrix(1 0 0 -1 1010.7018 37.4534)" style="overflow:visible;"/>
		
			<use xlink:href="#circle"  width="2" height="2" x="-1" y="-1" transform="matrix(1 0 0 -1 1005.3427 32.8552)" style="overflow:visible;"/>
		
			<use xlink:href="#circle"  width="2" height="2" x="-1" y="-1" transform="matrix(1 0 0 -1 1065.4221 55.4027)" style="overflow:visible;"/>
		
			<use xlink:href="#circle"  width="2" height="2" x="-1" y="-1" transform="matrix(1 0 0 -1 1082.1509 87.5601)" style="overflow:visible;"/>
		
			<use xlink:href="#circle"  width="2" height="2" x="-1" y="-1" transform="matrix(1 0 0 -1 1076.7234 116.991)" style="overflow:visible;"/>
		
			<use xlink:href="#circle"  width="2" height="2" x="-1" y="-1" transform="matrix(1 0 0 -1 1071.4999 131.9604)" style="overflow:visible;"/>
		
			<use xlink:href="#circle"  width="2" height="2" x="-1" y="-1" transform="matrix(1 0 0 -1 1090.6235 144.867)" style="overflow:visible;"/>
		
			<use xlink:href="#circle"  width="2" height="2" x="-1" y="-1" transform="matrix(1 0 0 -1 1114.5989 107.5408)" style="overflow:visible;"/>
		
			<use xlink:href="#circle"  width="2" height="2" x="-1" y="-1" transform="matrix(1 0 0 -1 1086.5187 17.4441)" style="overflow:visible;"/>
		
			<use xlink:href="#circle"  width="2" height="2" x="-1" y="-1" transform="matrix(1 0 0 -1 1045.7087 9.4847)" style="overflow:visible;"/>
		
			<use xlink:href="#circle"  width="2" height="2" x="-1" y="-1" transform="matrix(1 0 0 -1 1068.3669 18.6026)" style="overflow:visible;"/>
		
			<use xlink:href="#circle"  width="2" height="2" x="-1" y="-1" transform="matrix(1 0 0 -1 1108.588 35.4325)" style="overflow:visible;"/>
		
			<use xlink:href="#circle"  width="2" height="2" x="-1" y="-1" transform="matrix(1 0 0 -1 1145.9462 42.2307)" style="overflow:visible;"/>
		
			<use xlink:href="#circle"  width="2" height="2" x="-1" y="-1" transform="matrix(1 0 0 -1 1174.2667 21.0784)" style="overflow:visible;"/>
		
			<use xlink:href="#circle"  width="2" height="2" x="-1" y="-1" transform="matrix(1 0 0 -1 1186.175 24.058)" style="overflow:visible;"/>
		
			<use xlink:href="#circle"  width="2" height="2" x="-1" y="-1" transform="matrix(1 0 0 -1 1182.0873 44.3897)" style="overflow:visible;"/>
		
			<use xlink:href="#circle"  width="2" height="2" x="-1" y="-1" transform="matrix(1 0 0 -1 1152.9845 86.0613)" style="overflow:visible;"/>
		
			<use xlink:href="#circle"  width="2" height="2" x="-1" y="-1" transform="matrix(1 0 0 -1 1133.1829 87.5284)" style="overflow:visible;"/>
		
			<use xlink:href="#circle"  width="2" height="2" x="-1" y="-1" transform="matrix(1 0 0 -1 1142.5938 118.7964)" style="overflow:visible;"/>
		
			<use xlink:href="#circle"  width="2" height="2" x="-1" y="-1" transform="matrix(1 0 0 -1 1150.4409 138.9814)" style="overflow:visible;"/>
		
			<use xlink:href="#circle"  width="2" height="2" x="-1" y="-1" transform="matrix(1 0 0 -1 1160.3386 164.4999)" style="overflow:visible;"/>
		
			<use xlink:href="#circle"  width="2" height="2" x="-1" y="-1" transform="matrix(1 0 0 -1 1170.6764 173.2632)" style="overflow:visible;"/>
		
			<use xlink:href="#circle"  width="2" height="2" x="-1" y="-1" transform="matrix(1 0 0 -1 1178.6191 174.3896)" style="overflow:visible;"/>
		
			<use xlink:href="#circle"  width="2" height="2" x="-1" y="-1" transform="matrix(1 0 0 -1 1185.6993 171.6992)" style="overflow:visible;"/>
		
			<use xlink:href="#star"  width="3.5" height="3.5" x="-1.8" y="-1.8" transform="matrix(1 0 0 -1 26.4965 161.1891)" style="overflow:visible;"/>
		
			<use xlink:href="#star"  width="3.5" height="3.5" x="-1.8" y="-1.8" transform="matrix(1 0 0 -1 14.5568 92.8036)" style="overflow:visible;"/>
		
			<use xlink:href="#star"  width="3.5" height="3.5" x="-1.8" y="-1.8" transform="matrix(1 0 0 -1 14.2692 39.0002)" style="overflow:visible;"/>
		
			<use xlink:href="#star"  width="3.5" height="3.5" x="-1.8" y="-1.8" transform="matrix(1 0 0 -1 20.7475 33.8418)" style="overflow:visible;"/>
		
			<use xlink:href="#star"  width="3.5" height="3.5" x="-1.8" y="-1.8" transform="matrix(1 0 0 -1 52.4254 118.0311)" style="overflow:visible;"/>
		
			<use xlink:href="#star"  width="3.5" height="3.5" x="-1.8" y="-1.8" transform="matrix(1 0 0 -1 53.2005 127.9619)" style="overflow:visible;"/>
		
			<use xlink:href="#star"  width="3.5" height="3.5" x="-1.8" y="-1.8" transform="matrix(1 0 0 -1 33.8898 131.5798)" style="overflow:visible;"/>
		
			<use xlink:href="#star"  width="3.5" height="3.5" x="-1.8" y="-1.8" transform="matrix(1 0 0 -1 47.0683 155.8267)" style="overflow:visible;"/>
		
			<use xlink:href="#star"  width="3.5" height="3.5" x="-1.8" y="-1.8" transform="matrix(1 0 0 -1 62.1104 84.8652)" style="overflow:visible;"/>
		
			<use xlink:href="#star"  width="3.5" height="3.5" x="-1.8" y="-1.8" transform="matrix(1 0 0 -1 38.6971 61.5296)" style="overflow:visible;"/>
		
			<use xlink:href="#star"  width="3.5" height="3.5" x="-1.8" y="-1.8" transform="matrix(1 0 0 -1 61.0313 62.7253)" style="overflow:visible;"/>
		
			<use xlink:href="#star"  width="3.5" height="3.5" x="-1.8" y="-1.8" transform="matrix(1 0 0 -1 106.2572 49.418)" style="overflow:visible;"/>
		
			<use xlink:href="#star"  width="3.5" height="3.5" x="-1.8" y="-1.8" transform="matrix(1 0 0 -1 109.7564 33.739)" style="overflow:visible;"/>
		
			<use xlink:href="#star"  width="3.5" height="3.5" x="-1.8" y="-1.8" transform="matrix(1 0 0 -1 131.8282 24.861)" style="overflow:visible;"/>
		
			<use xlink:href="#star"  width="3.5" height="3.5" x="-1.8" y="-1.8" transform="matrix(1 0 0 -1 141.8143 91.6019)" style="overflow:visible;"/>
		
			<use xlink:href="#star"  width="3.5" height="3.5" x="-1.8" y="-1.8" transform="matrix(1 0 0 -1 143.6039 102.9019)" style="overflow:visible;"/>
		
			<use xlink:href="#star"  width="3.5" height="3.5" x="-1.8" y="-1.8" transform="matrix(1 0 0 -1 92.9183 122.4762)" style="overflow:visible;"/>
		
			<use xlink:href="#star"  width="3.5" height="3.5" x="-1.8" y="-1.8" transform="matrix(1 0 0 -1 91.4085 152.3717)" style="overflow:visible;"/>
		
			<use xlink:href="#star"  width="3.5" height="3.5" x="-1.8" y="-1.8" transform="matrix(1 0 0 -1 141.5039 148.0583)" style="overflow:visible;"/>
		
			<use xlink:href="#star"  width="3.5" height="3.5" x="-1.8" y="-1.8" transform="matrix(1 0 0 -1 164.4532 128.6282)" style="overflow:visible;"/>
		
			<use xlink:href="#star"  width="3.5" height="3.5" x="-1.8" y="-1.8" transform="matrix(1 0 0 -1 174.4967 116.7349)" style="overflow:visible;"/>
		
			<use xlink:href="#star"  width="3.5" height="3.5" x="-1.8" y="-1.8" transform="matrix(1 0 0 -1 165.5219 75.3295)" style="overflow:visible;"/>
		
			<use xlink:href="#star"  width="3.5" height="3.5" x="-1.8" y="-1.8" transform="matrix(1 0 0 -1 150.8209 32.4859)" style="overflow:visible;"/>
		
			<use xlink:href="#star"  width="3.5" height="3.5" x="-1.8" y="-1.8" transform="matrix(1 0 0 -1 180.2052 25.4929)" style="overflow:visible;"/>
		
			<use xlink:href="#star"  width="3.5" height="3.5" x="-1.8" y="-1.8" transform="matrix(1 0 0 -1 242.1487 31.1963)" style="overflow:visible;"/>
		
			<use xlink:href="#star"  width="3.5" height="3.5" x="-1.8" y="-1.8" transform="matrix(1 0 0 -1 219.4253 86.1344)" style="overflow:visible;"/>
		
			<use xlink:href="#star"  width="3.5" height="3.5" x="-1.8" y="-1.8" transform="matrix(1 0 0 -1 207.5963 117.1238)" style="overflow:visible;"/>
		
			<use xlink:href="#star"  width="3.5" height="3.5" x="-1.8" y="-1.8" transform="matrix(1 0 0 -1 207.9621 132.4656)" style="overflow:visible;"/>
		
			<use xlink:href="#star"  width="3.5" height="3.5" x="-1.8" y="-1.8" transform="matrix(1 0 0 -1 252.1058 94.6606)" style="overflow:visible;"/>
		
			<use xlink:href="#star"  width="3.5" height="3.5" x="-1.8" y="-1.8" transform="matrix(1 0 0 -1 247.3595 45.6287)" style="overflow:visible;"/>
		
			<use xlink:href="#star"  width="3.5" height="3.5" x="-1.8" y="-1.8" transform="matrix(1 0 0 -1 229.6638 24.3136)" style="overflow:visible;"/>
		
			<use xlink:href="#star"  width="3.5" height="3.5" x="-1.8" y="-1.8" transform="matrix(1 0 0 -1 278.5095 31.6142)" style="overflow:visible;"/>
		
			<use xlink:href="#star"  width="3.5" height="3.5" x="-1.8" y="-1.8" transform="matrix(1 0 0 -1 293.4036 40.6796)" style="overflow:visible;"/>
		
			<use xlink:href="#star"  width="3.5" height="3.5" x="-1.8" y="-1.8" transform="matrix(1 0 0 -1 293.3152 98.0598)" style="overflow:visible;"/>
		
			<use xlink:href="#star"  width="3.5" height="3.5" x="-1.8" y="-1.8" transform="matrix(1 0 0 -1 290.0197 105.7323)" style="overflow:visible;"/>
		
			<use xlink:href="#star"  width="3.5" height="3.5" x="-1.8" y="-1.8" transform="matrix(1 0 0 -1 326.005 106.6791)" style="overflow:visible;"/>
		
			<use xlink:href="#star"  width="3.5" height="3.5" x="-1.8" y="-1.8" transform="matrix(1 0 0 -1 343.2189 66.5527)" style="overflow:visible;"/>
		
			<use xlink:href="#star"  width="3.5" height="3.5" x="-1.8" y="-1.8" transform="matrix(1 0 0 -1 335.8133 51.9104)" style="overflow:visible;"/>
		
			<use xlink:href="#star"  width="3.5" height="3.5" x="-1.8" y="-1.8" transform="matrix(1 0 0 -1 338.1365 42.2933)" style="overflow:visible;"/>
		
			<use xlink:href="#star"  width="3.5" height="3.5" x="-1.8" y="-1.8" transform="matrix(1 0 0 -1 415.5473 28.1744)" style="overflow:visible;"/>
		
			<use xlink:href="#star"  width="3.5" height="3.5" x="-1.8" y="-1.8" transform="matrix(1 0 0 -1 424.7697 61.2292)" style="overflow:visible;"/>
		
			<use xlink:href="#star"  width="3.5" height="3.5" x="-1.8" y="-1.8" transform="matrix(1 0 0 -1 424.5882 78.2036)" style="overflow:visible;"/>
		
			<use xlink:href="#star"  width="3.5" height="3.5" x="-1.8" y="-1.8" transform="matrix(1 0 0 -1 420.1853 83.5578)" style="overflow:visible;"/>
		
			<use xlink:href="#star"  width="3.5" height="3.5" x="-1.8" y="-1.8" transform="matrix(1 0 0 -1 435.0555 90.6219)" style="overflow:visible;"/>
		
			<use xlink:href="#star"  width="3.5" height="3.5" x="-1.8" y="-1.8" transform="matrix(1 0 0 -1 464.4371 46.4142)" style="overflow:visible;"/>
		
			<use xlink:href="#star"  width="3.5" height="3.5" x="-1.8" y="-1.8" transform="matrix(1 0 0 -1 502.1646 26.6564)" style="overflow:visible;"/>
		
			<use xlink:href="#star"  width="3.5" height="3.5" x="-1.8" y="-1.8" transform="matrix(1 0 0 -1 509.7988 69.5374)" style="overflow:visible;"/>
		
			<use xlink:href="#star"  width="3.5" height="3.5" x="-1.8" y="-1.8" transform="matrix(1 0 0 -1 525.2347 55.0415)" style="overflow:visible;"/>
		
			<use xlink:href="#star"  width="3.5" height="3.5" x="-1.8" y="-1.8" transform="matrix(1 0 0 -1 533.1729 37.7987)" style="overflow:visible;"/>
		
			<use xlink:href="#star"  width="3.5" height="3.5" x="-1.8" y="-1.8" transform="matrix(1 0 0 -1 543.3006 37.3151)" style="overflow:visible;"/>
		
			<use xlink:href="#star"  width="3.5" height="3.5" x="-1.8" y="-1.8" transform="matrix(1 0 0 -1 584.6595 40.9)" style="overflow:visible;"/>
		
			<use xlink:href="#star"  width="3.5" height="3.5" x="-1.8" y="-1.8" transform="matrix(1 0 0 -1 584.8548 68.497)" style="overflow:visible;"/>
		
			<use xlink:href="#star"  width="3.5" height="3.5" x="-1.8" y="-1.8" transform="matrix(1 0 0 -1 583.8138 89.613)" style="overflow:visible;"/>
		
			<use xlink:href="#star"  width="3.5" height="3.5" x="-1.8" y="-1.8" transform="matrix(1 0 0 -1 588.1758 96.4812)" style="overflow:visible;"/>
		
			<use xlink:href="#star"  width="3.5" height="3.5" x="-1.8" y="-1.8" transform="matrix(1 0 0 -1 626.649 49.659)" style="overflow:visible;"/>
		
			<use xlink:href="#star"  width="3.5" height="3.5" x="-1.8" y="-1.8" transform="matrix(1 0 0 -1 651.6267 28.188)" style="overflow:visible;"/>
		
			<use xlink:href="#star"  width="3.5" height="3.5" x="-1.8" y="-1.8" transform="matrix(1 0 0 -1 657.7889 42.7669)" style="overflow:visible;"/>
		
			<use xlink:href="#star"  width="3.5" height="3.5" x="-1.8" y="-1.8" transform="matrix(1 0 0 -1 659.708 33.9108)" style="overflow:visible;"/>
		
			<use xlink:href="#star"  width="3.5" height="3.5" x="-1.8" y="-1.8" transform="matrix(1 0 0 -1 658.9172 59.1724)" style="overflow:visible;"/>
		
			<use xlink:href="#star"  width="3.5" height="3.5" x="-1.8" y="-1.8" transform="matrix(1 0 0 -1 658.9944 77.0419)" style="overflow:visible;"/>
		
			<use xlink:href="#star"  width="3.5" height="3.5" x="-1.8" y="-1.8" transform="matrix(1 0 0 -1 693.962 68.9561)" style="overflow:visible;"/>
		
			<use xlink:href="#star"  width="3.5" height="3.5" x="-1.8" y="-1.8" transform="matrix(1 0 0 -1 727.4929 44.9267)" style="overflow:visible;"/>
		
			<use xlink:href="#star"  width="3.5" height="3.5" x="-1.8" y="-1.8" transform="matrix(1 0 0 -1 724.5192 55.5698)" style="overflow:visible;"/>
		
			<use xlink:href="#star"  width="3.5" height="3.5" x="-1.8" y="-1.8" transform="matrix(1 0 0 -1 735.9394 48.963)" style="overflow:visible;"/>
		
			<use xlink:href="#star"  width="3.5" height="3.5" x="-1.8" y="-1.8" transform="matrix(1 0 0 -1 782.73 9.5174)" style="overflow:visible;"/>
		
			<use xlink:href="#star"  width="3.5" height="3.5" x="-1.8" y="-1.8" transform="matrix(1 0 0 -1 764.483 55.6749)" style="overflow:visible;"/>
		
			<use xlink:href="#star"  width="3.5" height="3.5" x="-1.8" y="-1.8" transform="matrix(1 0 0 -1 750.2536 77.4646)" style="overflow:visible;"/>
		
			<use xlink:href="#star"  width="3.5" height="3.5" x="-1.8" y="-1.8" transform="matrix(1 0 0 -1 750.5438 86.6308)" style="overflow:visible;"/>
		
			<use xlink:href="#star"  width="3.5" height="3.5" x="-1.8" y="-1.8" transform="matrix(1 0 0 -1 880.3538 54.2108)" style="overflow:visible;"/>
		
			<use xlink:href="#star"  width="3.5" height="3.5" x="-1.8" y="-1.8" transform="matrix(1 0 0 -1 870.9431 60.9455)" style="overflow:visible;"/>
		
			<use xlink:href="#star"  width="3.5" height="3.5" x="-1.8" y="-1.8" transform="matrix(1 0 0 -1 832.6263 108.0629)" style="overflow:visible;"/>
		
			<use xlink:href="#star"  width="3.5" height="3.5" x="-1.8" y="-1.8" transform="matrix(1 0 0 -1 850.079 90.5606)" style="overflow:visible;"/>
		
			<use xlink:href="#star"  width="3.5" height="3.5" x="-1.8" y="-1.8" transform="matrix(1 0 0 -1 849.6625 43.2825)" style="overflow:visible;"/>
		
			<use xlink:href="#star"  width="3.5" height="3.5" x="-1.8" y="-1.8" transform="matrix(1 0 0 -1 791.6665 31.7322)" style="overflow:visible;"/>
		
			<use xlink:href="#star"  width="3.5" height="3.5" x="-1.8" y="-1.8" transform="matrix(1 0 0 -1 784.9717 40.7296)" style="overflow:visible;"/>
		
			<use xlink:href="#star"  width="3.5" height="3.5" x="-1.8" y="-1.8" transform="matrix(1 0 0 -1 829.1981 41.5222)" style="overflow:visible;"/>
		
			<use xlink:href="#star"  width="3.5" height="3.5" x="-1.8" y="-1.8" transform="matrix(1 0 0 -1 861.9619 92.3096)" style="overflow:visible;"/>
		
			<use xlink:href="#star"  width="3.5" height="3.5" x="-1.8" y="-1.8" transform="matrix(1 0 0 -1 880.0255 101.0594)" style="overflow:visible;"/>
		
			<use xlink:href="#star"  width="3.5" height="3.5" x="-1.8" y="-1.8" transform="matrix(1 0 0 -1 925.0951 76.6345)" style="overflow:visible;"/>
		
			<use xlink:href="#star"  width="3.5" height="3.5" x="-1.8" y="-1.8" transform="matrix(1 0 0 -1 938.2569 25.2011)" style="overflow:visible;"/>
		
			<use xlink:href="#star"  width="3.5" height="3.5" x="-1.8" y="-1.8" transform="matrix(1 0 0 -1 970.9421 8.7315)" style="overflow:visible;"/>
		
			<use xlink:href="#star"  width="3.5" height="3.5" x="-1.8" y="-1.8" transform="matrix(1 0 0 -1 972.7624 75.3121)" style="overflow:visible;"/>
		
			<use xlink:href="#star"  width="3.5" height="3.5" x="-1.8" y="-1.8" transform="matrix(1 0 0 -1 947.0739 80.7424)" style="overflow:visible;"/>
		
			<use xlink:href="#star"  width="3.5" height="3.5" x="-1.8" y="-1.8" transform="matrix(1 0 0 -1 950.1003 90.9081)" style="overflow:visible;"/>
		
			<use xlink:href="#star"  width="3.5" height="3.5" x="-1.8" y="-1.8" transform="matrix(1 0 0 -1 944.4471 121.7264)" style="overflow:visible;"/>
		
			<use xlink:href="#star"  width="3.5" height="3.5" x="-1.8" y="-1.8" transform="matrix(1 0 0 -1 971.9079 110.8313)" style="overflow:visible;"/>
		
			<use xlink:href="#star"  width="3.5" height="3.5" x="-1.8" y="-1.8" transform="matrix(1 0 0 -1 982.9602 51.6504)" style="overflow:visible;"/>
		
			<use xlink:href="#star"  width="3.5" height="3.5" x="-1.8" y="-1.8" transform="matrix(1 0 0 -1 969.4923 32.0036)" style="overflow:visible;"/>
		
			<use xlink:href="#star"  width="3.5" height="3.5" x="-1.8" y="-1.8" transform="matrix(1 0 0 -1 1016.7786 35.1352)" style="overflow:visible;"/>
		
			<use xlink:href="#star"  width="3.5" height="3.5" x="-1.8" y="-1.8" transform="matrix(1 0 0 -1 1040.2284 70.3918)" style="overflow:visible;"/>
		
			<use xlink:href="#star"  width="3.5" height="3.5" x="-1.8" y="-1.8" transform="matrix(1 0 0 -1 1019.986 108.7766)" style="overflow:visible;"/>
		
			<use xlink:href="#star"  width="3.5" height="3.5" x="-1.8" y="-1.8" transform="matrix(1 0 0 -1 1009.4203 120.3075)" style="overflow:visible;"/>
		
			<use xlink:href="#star"  width="3.5" height="3.5" x="-1.8" y="-1.8" transform="matrix(1 0 0 -1 1038.3525 138.522)" style="overflow:visible;"/>
		
			<use xlink:href="#star"  width="3.5" height="3.5" x="-1.8" y="-1.8" transform="matrix(1 0 0 -1 1060.9124 132.8682)" style="overflow:visible;"/>
		
			<use xlink:href="#star"  width="3.5" height="3.5" x="-1.8" y="-1.8" transform="matrix(1 0 0 -1 1076.7734 144.9969)" style="overflow:visible;"/>
		
			<use xlink:href="#star"  width="3.5" height="3.5" x="-1.8" y="-1.8" transform="matrix(1 0 0 -1 1127.9208 149.0606)" style="overflow:visible;"/>
		
			<use xlink:href="#star"  width="3.5" height="3.5" x="-1.8" y="-1.8" transform="matrix(1 0 0 -1 1167.7753 148.975)" style="overflow:visible;"/>
		
			<use xlink:href="#star"  width="3.5" height="3.5" x="-1.8" y="-1.8" transform="matrix(1 0 0 -1 1165.8403 92.1447)" style="overflow:visible;"/>
		
			<use xlink:href="#star"  width="3.5" height="3.5" x="-1.8" y="-1.8" transform="matrix(1 0 0 -1 1160.5692 41.3814)" style="overflow:visible;"/>
		
			<use xlink:href="#star"  width="3.5" height="3.5" x="-1.8" y="-1.8" transform="matrix(1 0 0 -1 1110.9269 11.6289)" style="overflow:visible;"/>
		
			<use xlink:href="#star"  width="3.5" height="3.5" x="-1.8" y="-1.8" transform="matrix(1 0 0 -1 1087.9531 39.2442)" style="overflow:visible;"/>
		
			<use xlink:href="#star"  width="3.5" height="3.5" x="-1.8" y="-1.8" transform="matrix(1 0 0 -1 1089.7556 62.2114)" style="overflow:visible;"/>
		
			<use xlink:href="#star"  width="3.5" height="3.5" x="-1.8" y="-1.8" transform="matrix(1 0 0 -1 1048.8748 71.0273)" style="overflow:visible;"/>
		
			<use xlink:href="#star"  width="3.5" height="3.5" x="-1.8" y="-1.8" transform="matrix(1 0 0 -1 1032.8732 63.8164)" style="overflow:visible;"/>
		
			<use xlink:href="#star"  width="3.5" height="3.5" x="-1.8" y="-1.8" transform="matrix(1 0 0 -1 1016.7979 41.9202)" style="overflow:visible;"/>
		
			<use xlink:href="#star"  width="3.5" height="3.5" x="-1.8" y="-1.8" transform="matrix(1 0 0 -1 251.5791 13.5433)" style="overflow:visible;"/>
		
			<use xlink:href="#star"  width="3.5" height="3.5" x="-1.8" y="-1.8" transform="matrix(1 0 0 -1 266.6513 6.5896)" style="overflow:visible;"/>
		
			<use xlink:href="#star"  width="3.5" height="3.5" x="-1.8" y="-1.8" transform="matrix(1 0 0 -1 275.6049 40.829)" style="overflow:visible;"/>
		
			<use xlink:href="#star"  width="3.5" height="3.5" x="-1.8" y="-1.8" transform="matrix(1 0 0 -1 324.2344 22.4703)" style="overflow:visible;"/>
		
			<use xlink:href="#star"  width="3.5" height="3.5" x="-1.8" y="-1.8" transform="matrix(1 0 0 -1 348.5453 22.4712)" style="overflow:visible;"/>
		
			<use xlink:href="#star"  width="3.5" height="3.5" x="-1.8" y="-1.8" transform="matrix(1 0 0 -1 357.9398 13.4838)" style="overflow:visible;"/>
		
			<use xlink:href="#star"  width="3.5" height="3.5" x="-1.8" y="-1.8" transform="matrix(1 0 0 -1 385.8606 14.7113)" style="overflow:visible;"/>
		
			<use xlink:href="#star"  width="3.5" height="3.5" x="-1.8" y="-1.8" transform="matrix(1 0 0 -1 402.5522 24.7363)" style="overflow:visible;"/>
		
			<use xlink:href="#star"  width="3.5" height="3.5" x="-1.8" y="-1.8" transform="matrix(1 0 0 -1 406.1102 36.6428)" style="overflow:visible;"/>
		
			<use xlink:href="#star"  width="3.5" height="3.5" x="-1.8" y="-1.8" transform="matrix(1 0 0 -1 464.2351 16.0364)" style="overflow:visible;"/>
		
			<use xlink:href="#star"  width="3.5" height="3.5" x="-1.8" y="-1.8" transform="matrix(1 0 0 -1 479.3162 13.8455)" style="overflow:visible;"/>
		
			<use xlink:href="#star"  width="3.5" height="3.5" x="-1.8" y="-1.8" transform="matrix(1 0 0 -1 541.0607 -2.7364)" style="overflow:visible;"/>
		
			<use xlink:href="#star"  width="3.5" height="3.5" x="-1.8" y="-1.8" transform="matrix(1 0 0 -1 541.9443 10.9382)" style="overflow:visible;"/>
		
			<use xlink:href="#star"  width="3.5" height="3.5" x="-1.8" y="-1.8" transform="matrix(1 0 0 -1 561.5248 4.1014)" style="overflow:visible;"/>
		
			<use xlink:href="#star"  width="3.5" height="3.5" x="-1.8" y="-1.8" transform="matrix(1 0 0 -1 566.8678 17.7517)" style="overflow:visible;"/>
		
			<use xlink:href="#star"  width="3.5" height="3.5" x="-1.8" y="-1.8" transform="matrix(1 0 0 -1 567.4013 27.9445)" style="overflow:visible;"/>
		
			<use xlink:href="#star"  width="3.5" height="3.5" x="-1.8" y="-1.8" transform="matrix(1 0 0 -1 629.5949 6.654)" style="overflow:visible;"/>
		
			<use xlink:href="#star"  width="3.5" height="3.5" x="-1.8" y="-1.8" transform="matrix(1 0 0 -1 643.8295 18.4288)" style="overflow:visible;"/>
		
			<use xlink:href="#star"  width="3.5" height="3.5" x="-1.8" y="-1.8" transform="matrix(1 0 0 -1 668.3262 39.0499)" style="overflow:visible;"/>
		
			<use xlink:href="#star"  width="3.5" height="3.5" x="-1.8" y="-1.8" transform="matrix(1 0 0 -1 714.2563 17.5665)" style="overflow:visible;"/>
		
			<use xlink:href="#star"  width="3.5" height="3.5" x="-1.8" y="-1.8" transform="matrix(1 0 0 -1 729.4082 4.1255)" style="overflow:visible;"/>
		
			<use xlink:href="#star"  width="3.5" height="3.5" x="-1.8" y="-1.8" transform="matrix(1 0 0 -1 759.151 13.8986)" style="overflow:visible;"/>
		
			<use xlink:href="#star"  width="3.5" height="3.5" x="-1.8" y="-1.8" transform="matrix(1 0 0 -1 792.7132 19.7621)" style="overflow:visible;"/>
		
			<use xlink:href="#star"  width="3.5" height="3.5" x="-1.8" y="-1.8" transform="matrix(1 0 0 -1 830.9378 21.6354)" style="overflow:visible;"/>
		
			<use xlink:href="#star"  width="3.5" height="3.5" x="-1.8" y="-1.8" transform="matrix(1 0 0 -1 844.0191 34.9862)" style="overflow:visible;"/>
	</g>
</g>
<g id="Шар_1">
	<g>
		<path class="st0" d="M600,100C268.6,100,0,200,0,200h1200C1200,200,931.4,100,600,100z"/>
	</g>
</g>
</svg>
